# xmcd
# 
# Track frame offsets:
#     150
#     21973
#     44800
#     65200
#     86368
#     107585
#     130850
#     148080
#     173003
#     197440
#     220545
#     243838
#     264415
#     289638
#     307575
#     328675
# 
# Disc length: 4658
# 
# Revision: 23
# Processed by: cddbd v1.5.2PL0 Copyright (c) Steve Scherf et al.
# Submitted via: fre:ac v1.0.31
# 
DISCID=de123010
DTITLE=???? - Smiling ?The Best of Noriyuki Makihara?
DYEAR=1997
DGENRE=J-Pop
TTITLE0=01
TTITLE1=02
TTITLE2=03
TTITLE3=04
TTITLE4=05
TTITLE5=06
TTITLE6=07
TTITLE7=08
TTITLE8=09
TTITLE9=10
TTITLE10=11
TTITLE11=12
TTITLE12=13
TTITLE13=14
TTITLE14=15
TTITLE15=16
EXTD=YEAR: 1997
EXTT0=
EXTT1=
EXTT2=
EXTT3=
EXTT4=
EXTT5=
EXTT6=
EXTT7=
EXTT8=
EXTT9=
EXTT10=
EXTT11=
EXTT12=
EXTT13=
EXTT14=
EXTT15=
PLAYORDER=
